<svg xmlns="http://www.w3.org/2000/svg" viewBox="0 0 1035 506"><defs><style>.cls-1{fill:#e5dbc1}.cls-1,.cls-10,.cls-11,.cls-13,.cls-15,.cls-19,.cls-2,.cls-21,.cls-5,.cls-6,.cls-7,.cls-8{stroke:#000}.cls-1,.cls-10,.cls-13,.cls-19,.cls-2,.cls-21,.cls-5,.cls-6,.cls-7,.cls-8{stroke-linejoin:round}.cls-1,.cls-10,.cls-11,.cls-13,.cls-15,.cls-19,.cls-2,.cls-21,.cls-5,.cls-6,.cls-7,.cls-8,.cls-9{stroke-width:2px}.cls-2{fill:#fcbc1c}.cls-5,.cls-9{stroke-linecap:round}.cls-19,.cls-5,.cls-9{fill:none}.cls-15,.cls-22,.cls-6{fill:#fff}.cls-7{fill:#f2f2f2}.cls-8{fill:#8cd1cf}.cls-9{stroke:#fff}.cls-11,.cls-15,.cls-9{stroke-miterlimit:10}.cls-10{fill:#333}.cls-11,.cls-13{fill:#e6e6e6}.cls-17{opacity:.2}.cls-21{fill:#f9761e}</style></defs><g id="Layer_2" data-name="Layer 2"><g id="Illustration"><path class="cls-1" d="m208.15 341.58 5.74 1.55.56-14.63-6.3 13.08z"/><path class="cls-2" d="m207.94 367.09 5.95-23.96-5.74-1.55-6.33 25.51h6.12z"/><path style="fill-rule:evenodd;stroke-linecap:round;fill:#4d4d4d;stroke-width:2px;stroke-linejoin:round;stroke:#000" d="m185.16 367.09-5.53-44.6-6.99.95 5.41 43.65h7.11z"/><path d="m180.06 326 1.84-.25a1.51 1.51 0 0 1 1.66 1.34l2 15.78a1.93 1.93 0 0 1-1.61 2.17" style="fill:none;fill-rule:evenodd;stroke-linecap:round;stroke-width:2px;stroke-linejoin:round;stroke:#000"/><path class="cls-5" d="m175.93 350 6.99-.95"/><path class="cls-6" d="M211.97 422.62h-34.65l-7.03-55.53H219l-7.03 55.53z"/><path class="cls-1" d="M195.82 331.71a5.94 5.94 0 0 1-4.89-4.82 16.22 16.22 0 0 1 6.41-16.2s0 6.08 1.58 8.94c2.62 4.67 2.08 11.7-3.1 12.08Z"/><path class="cls-5" d="M191.6 347.46h8.02m-7.88-3.1h7.72"/><path class="cls-1" d="M199.15 367.09a167.25 167.25 0 0 0-1-36.2 4.6 4.6 0 0 1-2.37.82 6.12 6.12 0 0 1-2.3-.9H193a167.38 167.38 0 0 0-1 36.28Z"/><path class="cls-7" d="M195.82 331.71a6.12 6.12 0 0 1-2.3-.9H193a167.87 167.87 0 0 0-1.53 20.64h8.2a166.55 166.55 0 0 0-1.51-20.56 4.6 4.6 0 0 1-2.34.82Z"/><path class="cls-8" d="M211.97 422.62h-34.65l-7.03-55.53H219l-7.03 55.53z"/><path class="cls-9" d="m208.24 398.99-.81 5.52m4.59-31.36-3.03 20.7"/><path class="cls-7" d="m788.64 399.36-3.47-2.94a24.86 24.86 0 0 0-.07-5.45l3.41-3a2.51 2.51 0 0 0 .64-2.87l-2.52-5.91a2.52 2.52 0 0 0-2.52-1.51l-4.54.37a25.53 25.53 0 0 0-3.89-3.82l.27-4.53a2.52 2.52 0 0 0-1.57-2.48l-6-2.4a2.54 2.54 0 0 0-2.86.71l-2.89 3.47a24.85 24.85 0 0 0-5.45.07l-3-3.41a2.49 2.49 0 0 0-2.86-.64l-5.91 2.52a2.54 2.54 0 0 0-1.52 2.52l.38 4.54a25.07 25.07 0 0 0-3.82 3.89l-4.53-.27a2.52 2.52 0 0 0-2.49 1.57l-2.39 6a2.5 2.5 0 0 0 .71 2.85l3.47 2.94a24.86 24.86 0 0 0 .07 5.45l-3.41 3a2.53 2.53 0 0 0-.65 2.87l2.53 5.91a2.51 2.51 0 0 0 2.52 1.51l4.54-.37a25.08 25.08 0 0 0 3.89 3.82l-.28 4.53a2.51 2.51 0 0 0 1.58 2.48l6 2.39a2.5 2.5 0 0 0 2.85-.7l2.94-3.47a24.86 24.86 0 0 0 5.45-.07l3 3.41a2.51 2.51 0 0 0 2.87.64l5.91-2.52a2.52 2.52 0 0 0 1.51-2.52l-.37-4.54a25 25 0 0 0 3.81-3.89l4.54.27a2.5 2.5 0 0 0 2.48-1.57l2.39-6a2.52 2.52 0 0 0-.75-2.85Zm-28.46 8.3A13.7 13.7 0 1 1 773.87 394a13.69 13.69 0 0 1-13.69 13.66Z"/><path class="cls-2" d="m788.64 399.36-3.47-2.94a24.86 24.86 0 0 0-.07-5.45l3.41-3a2.51 2.51 0 0 0 .64-2.87l-2.52-5.91a2.52 2.52 0 0 0-2.52-1.51l-4.54.37a25.53 25.53 0 0 0-3.89-3.82l.27-4.53a2.52 2.52 0 0 0-1.57-2.48l-6-2.4a2.54 2.54 0 0 0-2.86.71l-2.89 3.47a24.85 24.85 0 0 0-5.45.07l-3-3.41a2.49 2.49 0 0 0-2.86-.64l-5.91 2.52a2.54 2.54 0 0 0-1.52 2.52l.38 4.54a25.07 25.07 0 0 0-3.82 3.89l-4.53-.27a2.52 2.52 0 0 0-2.49 1.57l-2.39 6a2.5 2.5 0 0 0 .71 2.85l3.47 2.94a24.86 24.86 0 0 0 .07 5.45l-3.41 3a2.53 2.53 0 0 0-.65 2.87l2.53 5.91a2.51 2.51 0 0 0 2.52 1.51l4.54-.37a25.08 25.08 0 0 0 3.89 3.82l-.28 4.53a2.51 2.51 0 0 0 1.58 2.48l6 2.39a2.5 2.5 0 0 0 2.85-.7l2.94-3.47a24.86 24.86 0 0 0 5.45-.07l3 3.41a2.51 2.51 0 0 0 2.87.64l5.91-2.52a2.52 2.52 0 0 0 1.51-2.52l-.37-4.54a25 25 0 0 0 3.81-3.89l4.54.27a2.5 2.5 0 0 0 2.48-1.57l2.39-6a2.52 2.52 0 0 0-.75-2.85Zm-28.46 8.3A13.7 13.7 0 1 1 773.87 394a13.69 13.69 0 0 1-13.69 13.66Z"/><path class="cls-7" d="m829.45 408.55-2.13-1.81a15.12 15.12 0 0 0-.05-3.36l2.1-1.86a1.55 1.55 0 0 0 .4-1.77l-1.56-3.64a1.53 1.53 0 0 0-1.55-.93l-2.79.23a15.22 15.22 0 0 0-2.4-2.35l.17-2.8a1.55 1.55 0 0 0-1-1.53l-3.64-1.47a1.54 1.54 0 0 0-1.75.43l-1.82 2.14a15.65 15.65 0 0 0-3.35 0l-1.87-2.1a1.54 1.54 0 0 0-1.76-.39l-3.64 1.55a1.55 1.55 0 0 0-.94 1.55l.23 2.8a15.68 15.68 0 0 0-2.35 2.4l-2.79-.17a1.55 1.55 0 0 0-1.53 1l-1.48 3.67a1.56 1.56 0 0 0 .44 1.76l2.13 1.81a15.75 15.75 0 0 0 0 3.36l-2.1 1.86a1.56 1.56 0 0 0-.4 1.77l1.56 3.64a1.53 1.53 0 0 0 1.55.93l2.8-.23a15.68 15.68 0 0 0 2.39 2.36l-.16 2.79a1.55 1.55 0 0 0 1 1.53l3.68 1.47a1.54 1.54 0 0 0 1.76-.43l1.81-2.14a15.65 15.65 0 0 0 3.35 0l1.87 2.1a1.54 1.54 0 0 0 1.76.4l3.65-1.56A1.56 1.56 0 0 0 822 420l-.23-2.8a15.68 15.68 0 0 0 2.35-2.4l2.8.17a1.53 1.53 0 0 0 1.52-1l1.48-3.67a1.55 1.55 0 0 0-.47-1.75Zm-17.53 5.12a8.44 8.44 0 1 1 8.44-8.44 8.44 8.44 0 0 1-8.44 8.44Z"/><path class="cls-2" d="m829.45 408.55-2.13-1.81a15.12 15.12 0 0 0-.05-3.36l2.1-1.86a1.55 1.55 0 0 0 .4-1.77l-1.56-3.64a1.53 1.53 0 0 0-1.55-.93l-2.79.23a15.22 15.22 0 0 0-2.4-2.35l.17-2.8a1.55 1.55 0 0 0-1-1.53l-3.64-1.47a1.54 1.54 0 0 0-1.75.43l-1.82 2.14a15.65 15.65 0 0 0-3.35 0l-1.87-2.1a1.54 1.54 0 0 0-1.76-.39l-3.64 1.55a1.55 1.55 0 0 0-.94 1.55l.23 2.8a15.68 15.68 0 0 0-2.35 2.4l-2.79-.17a1.55 1.55 0 0 0-1.53 1l-1.48 3.67a1.56 1.56 0 0 0 .44 1.76l2.13 1.81a15.75 15.75 0 0 0 0 3.36l-2.1 1.86a1.56 1.56 0 0 0-.4 1.77l1.56 3.64a1.53 1.53 0 0 0 1.55.93l2.8-.23a15.68 15.68 0 0 0 2.39 2.36l-.16 2.79a1.55 1.55 0 0 0 1 1.53l3.68 1.47a1.54 1.54 0 0 0 1.76-.43l1.81-2.14a15.65 15.65 0 0 0 3.35 0l1.87 2.1a1.54 1.54 0 0 0 1.76.4l3.65-1.56A1.56 1.56 0 0 0 822 420l-.23-2.8a15.68 15.68 0 0 0 2.35-2.4l2.8.17a1.53 1.53 0 0 0 1.52-1l1.48-3.67a1.55 1.55 0 0 0-.47-1.75Zm-17.53 5.12a8.44 8.44 0 1 1 8.44-8.44 8.44 8.44 0 0 1-8.44 8.44Z"/><path class="cls-10" d="M668 353V153.38a8.4 8.4 0 0 0-8.38-8.38H330.38a8.4 8.4 0 0 0-8.38 8.38V353Z"/><path class="cls-8" d="M334 157h321v181H334z"/><path class="cls-6" d="M334 157h321v7H334z"/><path class="cls-11" d="M668 374.62V353H322v21.62a8.4 8.4 0 0 0 8.38 8.38h329.24a8.4 8.4 0 0 0 8.38-8.38Z"/><path style="stroke-miterlimit:10;fill:none;stroke-width:2px;stroke:#000" d="M334 157h321v182H334z"/><path class="cls-13" d="M525.73 418h-61.92l3.89-35h54.14l3.89 35z"/><path class="cls-7" d="M457.21 418h75.57a1.71 1.71 0 0 1 1.71 1.71V423h-79v-3.29a1.71 1.71 0 0 1 1.72-1.71Z"/><path class="cls-9" d="m349.65 192.37 14.29-14.29m13.36 2.52 7.13-7.13m-39.39 39.39 25.88-25.88"/><path d="M647.45 409.83c-12.63 0-22.86 4-22.86 8.87 0 1.56 1 3 2.86 4.3h40c1.82-1.27 2.86-2.74 2.86-4.3-.01-4.9-10.24-8.87-22.86-8.87Z" style="stroke-miterlimit:10;fill:#f2f2f2;stroke-width:2px;stroke:#000"/><path class="cls-13" d="M357.49 416h211a2.49 2.49 0 0 1 2.49 2.49V423H355v-4.51a2.49 2.49 0 0 1 2.49-2.49Z"/><path class="cls-15" d="M365 411h12v5h-12zm18 0h12v5h-12zm17 0h12v5h-12zm17 0h12v5h-12zm76 0h12v5h-12zm17 0h12v5h-12zm17 0h9v5h-9zm15 0h9v5h-9zm14 0h9v5h-9zm-122 0h54v5h-54z"/><rect class="cls-7" x="1" y="423" width="1033" height="21" rx="4" ry="4"/><path style="fill:#4d4d4d;stroke-width:2px;stroke-linejoin:round;stroke:#000" d="M70 444h894v9H70z"/><path class="cls-17" d="M70 444h894v4H70z"/><path class="cls-10" d="M119 453h47v52h-47zm751 0h47v52h-47z"/><path d="M119 453h47v9h-47zm751 0h47v9h-47z" class="cls-17"/><path class="cls-7" d="m523.64 238.36-3.47-2.94a24.86 24.86 0 0 0-.07-5.45l3.41-3a2.51 2.51 0 0 0 .64-2.87l-2.52-5.91a2.52 2.52 0 0 0-2.52-1.51l-4.54.37a25.53 25.53 0 0 0-3.89-3.82l.27-4.53a2.52 2.52 0 0 0-1.57-2.48l-6-2.4a2.54 2.54 0 0 0-2.86.71l-2.89 3.47a24.85 24.85 0 0 0-5.45.07l-3-3.41a2.49 2.49 0 0 0-2.86-.64l-5.91 2.52a2.54 2.54 0 0 0-1.52 2.52l.38 4.54a25.07 25.07 0 0 0-3.82 3.89l-4.53-.27a2.52 2.52 0 0 0-2.49 1.57l-2.39 6a2.5 2.5 0 0 0 .71 2.85l3.47 2.94a24.86 24.86 0 0 0 .07 5.45l-3.41 3a2.53 2.53 0 0 0-.65 2.87l2.53 5.91a2.51 2.51 0 0 0 2.52 1.51l4.54-.37a25.08 25.08 0 0 0 3.89 3.82l-.28 4.53a2.51 2.51 0 0 0 1.58 2.48l6 2.39a2.5 2.5 0 0 0 2.85-.7l2.94-3.47a24.86 24.86 0 0 0 5.45-.07l3 3.41a2.51 2.51 0 0 0 2.87.64l5.91-2.52a2.52 2.52 0 0 0 1.51-2.52l-.37-4.54a25 25 0 0 0 3.81-3.89l4.54.27a2.5 2.5 0 0 0 2.48-1.57l2.39-6a2.52 2.52 0 0 0-.75-2.85Zm-28.46 8.3A13.7 13.7 0 1 1 508.87 233a13.69 13.69 0 0 1-13.69 13.66Z"/><path class="cls-2" d="m523.64 238.36-3.47-2.94a24.86 24.86 0 0 0-.07-5.45l3.41-3a2.51 2.51 0 0 0 .64-2.87l-2.52-5.91a2.52 2.52 0 0 0-2.52-1.51l-4.54.37a25.53 25.53 0 0 0-3.89-3.82l.27-4.53a2.52 2.52 0 0 0-1.57-2.48l-6-2.4a2.54 2.54 0 0 0-2.86.71l-2.89 3.47a24.85 24.85 0 0 0-5.45.07l-3-3.41a2.49 2.49 0 0 0-2.86-.64l-5.91 2.52a2.54 2.54 0 0 0-1.52 2.52l.38 4.54a25.07 25.07 0 0 0-3.82 3.89l-4.53-.27a2.52 2.52 0 0 0-2.49 1.57l-2.39 6a2.5 2.5 0 0 0 .71 2.85l3.47 2.94a24.86 24.86 0 0 0 .07 5.45l-3.41 3a2.53 2.53 0 0 0-.65 2.87l2.53 5.91a2.51 2.51 0 0 0 2.52 1.51l4.54-.37a25.08 25.08 0 0 0 3.89 3.82l-.28 4.53a2.51 2.51 0 0 0 1.58 2.48l6 2.39a2.5 2.5 0 0 0 2.85-.7l2.94-3.47a24.86 24.86 0 0 0 5.45-.07l3 3.41a2.51 2.51 0 0 0 2.87.64l5.91-2.52a2.52 2.52 0 0 0 1.51-2.52l-.37-4.54a25 25 0 0 0 3.81-3.89l4.54.27a2.5 2.5 0 0 0 2.48-1.57l2.39-6a2.52 2.52 0 0 0-.75-2.85Zm-28.46 8.3A13.7 13.7 0 1 1 508.87 233a13.69 13.69 0 0 1-13.69 13.66Z"/><path d="m550.18 265-2.76-.92a15.85 15.85 0 0 0-1.33-3.21l1.3-2.6a1.6 1.6 0 0 0-.3-1.85l-2.9-2.9a1.6 1.6 0 0 0-1.85-.3l-2.6 1.3a15.71 15.71 0 0 0-3.22-1.33l-.92-2.76a1.6 1.6 0 0 0-1.52-1.1H530a1.6 1.6 0 0 0-1.52 1.1l-.92 2.76a15.71 15.71 0 0 0-3.22 1.33l-2.6-1.3a1.6 1.6 0 0 0-1.85.3l-2.9 2.9a1.6 1.6 0 0 0-.3 1.85l1.3 2.6a15.85 15.85 0 0 0-1.33 3.21l-2.76.92a1.62 1.62 0 0 0-1.09 1.53v4.1a1.6 1.6 0 0 0 1.09 1.52l2.76.92a15.71 15.71 0 0 0 1.33 3.22l-1.3 2.59a1.59 1.59 0 0 0 .3 1.85l2.9 2.91a1.63 1.63 0 0 0 1.85.3l2.6-1.3a15.68 15.68 0 0 0 3.22 1.32l.92 2.77a1.6 1.6 0 0 0 1.52 1.09h4.1a1.6 1.6 0 0 0 1.52-1.09l.92-2.77a15.68 15.68 0 0 0 3.22-1.32l2.6 1.3a1.63 1.63 0 0 0 1.85-.3l2.9-2.91a1.59 1.59 0 0 0 .3-1.85l-1.3-2.59a15.71 15.71 0 0 0 1.33-3.22l2.76-.92a1.61 1.61 0 0 0 1.1-1.52v-4.1a1.63 1.63 0 0 0-1.12-1.53ZM532 275a6.42 6.42 0 1 1 6.42-6.41A6.41 6.41 0 0 1 532 275Zm-57.13-1.65-2.87-2.17a19.67 19.67 0 0 0-.27-4.28l2.55-2.51a2 2 0 0 0 .39-2.28l-2.23-4.54a2 2 0 0 0-2-1.08l-3.54.47a19.73 19.73 0 0 0-3.22-2.82v-3.59a2 2 0 0 0-1.33-1.88l-4.79-1.67a2 2 0 0 0-2.21.68l-2.17 2.85a19.67 19.67 0 0 0-4.28.26l-2.51-2.54a2 2 0 0 0-2.28-.39l-4.54 2.23a2 2 0 0 0-1.08 2l.47 3.55a19.32 19.32 0 0 0-2.82 3.22h-3.59a2 2 0 0 0-1.88 1.34L429 265a2 2 0 0 0 .68 2.21l2.85 2.17a19.67 19.67 0 0 0 .26 4.28l-2.54 2.51a2 2 0 0 0-.39 2.28l2.23 4.53a2 2 0 0 0 2 1.09l3.55-.48a19.38 19.38 0 0 0 3.22 2.83v3.59a2 2 0 0 0 1.34 1.88l4.79 1.63a2 2 0 0 0 2.21-.67l2.2-2.85a19.67 19.67 0 0 0 4.28-.27l2.51 2.55a2 2 0 0 0 2.28.39l4.53-2.23a2 2 0 0 0 1.09-2l-.48-3.54a19.79 19.79 0 0 0 2.83-3.22h3.59a2 2 0 0 0 1.88-1.33l1.63-4.79a2 2 0 0 0-.67-2.21Zm-25.14 4.42a7.9 7.9 0 1 1 10-4.93 7.91 7.91 0 0 1-10 4.93ZM581 247l-2.29-.76a13 13 0 0 0-1.1-2.67l1.08-2.15a1.35 1.35 0 0 0-.25-1.54l-2.44-2.41a1.35 1.35 0 0 0-1.54-.25l-2.15 1.08a13 13 0 0 0-2.67-1.1l-.76-2.29a1.33 1.33 0 0 0-1.26-.91h-3.41a1.33 1.33 0 0 0-1.26.91l-.76 2.29a12.82 12.82 0 0 0-2.67 1.1l-2.16-1.08a1.34 1.34 0 0 0-1.53.25l-2.41 2.41a1.32 1.32 0 0 0-.25 1.54l1.08 2.15a13 13 0 0 0-1.1 2.67l-2.29.76a1.32 1.32 0 0 0-.91 1.26v3.41a1.32 1.32 0 0 0 .91 1.26l2.29.76a13 13 0 0 0 1.1 2.67l-1.08 2.16a1.31 1.31 0 0 0 .25 1.53l2.41 2.41a1.34 1.34 0 0 0 1.53.25l2.16-1.08a12.82 12.82 0 0 0 2.67 1.1L563 265a1.32 1.32 0 0 0 1.26.91h3.41a1.32 1.32 0 0 0 1.26-.91l.76-2.29a13 13 0 0 0 2.67-1.1l2.15 1.08a1.35 1.35 0 0 0 1.54-.25l2.41-2.41a1.34 1.34 0 0 0 .25-1.53l-1.08-2.16a13 13 0 0 0 1.1-2.67l2.29-.76a1.33 1.33 0 0 0 .91-1.26v-3.41A1.33 1.33 0 0 0 581 247Zm-15.06 8.29a5.33 5.33 0 1 1 5.33-5.32 5.32 5.32 0 0 1-5.36 5.32ZM438.39 240l-2-.93a12.12 12.12 0 0 0-.72-2.54l1.2-1.84a1.23 1.23 0 0 0-.07-1.43l-1.94-2.43a1.22 1.22 0 0 0-1.37-.39l-2.07.76a12.07 12.07 0 0 0-2.32-1.2l-.46-2.16a1.2 1.2 0 0 0-1.05-1l-3.1-.36a1.24 1.24 0 0 0-1.24.7l-.93 2a12.12 12.12 0 0 0-2.54.72l-1.85-1.2a1.2 1.2 0 0 0-1.42.07l-2.43 1.94a1.22 1.22 0 0 0-.39 1.37l.76 2.07a12.07 12.07 0 0 0-1.28 2.31l-2.16.46a1.22 1.22 0 0 0-1 1.05l-.35 3.1a1.21 1.21 0 0 0 .7 1.24l2 .93a12.14 12.14 0 0 0 .73 2.54l-1.2 1.84a1.22 1.22 0 0 0 .07 1.43l1.94 2.43a1.21 1.21 0 0 0 1.37.39l2.06-.76a12.15 12.15 0 0 0 2.32 1.28l.46 2.16a1.2 1.2 0 0 0 1.05 1l3.09.35a1.22 1.22 0 0 0 1.24-.69l.94-2a12.29 12.29 0 0 0 2.54-.72l1.84 1.2a1.2 1.2 0 0 0 1.42-.07l2.44-1.94a1.21 1.21 0 0 0 .38-1.37l-.75-2.07a12 12 0 0 0 1.27-2.31l2.16-.46a1.21 1.21 0 0 0 1-1.05l.35-3.1a1.22 1.22 0 0 0-.69-1.32Zm-14.55 6a4.87 4.87 0 1 1 5.39-4.29 4.87 4.87 0 0 1-5.39 4.29Zm-15.97 5.28-1.37-.63a8.46 8.46 0 0 0-.49-1.74l.82-1.26a.84.84 0 0 0-.05-1l-1.32-1.65a.84.84 0 0 0-.94-.26l-1.41.52a7.83 7.83 0 0 0-1.58-.87l-.32-1.48a.82.82 0 0 0-.72-.65l-2.11-.24a.84.84 0 0 0-.85.47l-.63 1.37a8.67 8.67 0 0 0-1.74.5l-1.26-.82a.83.83 0 0 0-1 0l-1.66 1.33a.84.84 0 0 0-.27.94l.52 1.41a9 9 0 0 0-.87 1.58l-1.48.31a.82.82 0 0 0-.65.72l-.24 2.11a.83.83 0 0 0 .48.85l1.36.64a8.39 8.39 0 0 0 .5 1.73l-.82 1.26a.81.81 0 0 0 .05 1l1.32 1.67a.84.84 0 0 0 .94.26l1.41-.52a8.4 8.4 0 0 0 1.58.88l.31 1.47a.84.84 0 0 0 .72.65l2.12.24a.81.81 0 0 0 .84-.47l.64-1.37a8.37 8.37 0 0 0 1.73-.49l1.26.82a.86.86 0 0 0 1-.05l1.66-1.33a.81.81 0 0 0 .26-.93l-.51-1.42a8.53 8.53 0 0 0 .87-1.57l1.47-.32a.83.83 0 0 0 .66-.72l.24-2.11a.83.83 0 0 0-.47-.83Zm-9.93 4.09a3.33 3.33 0 1 1 3.68-2.93 3.33 3.33 0 0 1-3.68 2.93Z" style="fill:#6dafac;stroke-width:2px;stroke-linejoin:round;stroke:#000"/><path class="cls-19" d="M715 296h33v33h-33zm0 0 33 33m0-33-33 33m0-66h33v33h-33zm0 0 33 33m0-33-33 33m0-66h33v33h-33zm0 0 33 33m0-33-33 33m0-66h33v33h-33zm0 0 33 33m0-33-33 33m0-66h33v33h-33zm0 0 33 33m0-33-33 33m0-66h33v33h-33zm0 0 33 33m0-33-33 33m0-66h33v33h-33zm0 0 33 33m0-33-33 33m0-66h33v33h-33zm33 0h-33l9-49h15l9 49zm-33 0 33 33m0-33-33 33m0-33 24-49m9 49-24-49m-9 313h33v33h-33zm0 0 33 33m0-33-33 33m0 0h33v33h-33zm0 0 33 33m0-33-33 33"/><circle class="cls-2" cx="731.5" cy="10.5" r="9.5"/><path class="cls-19" d="M748 106h85v4h-85zm0-14h85v14h-85zm5 0v14m5-14v14m5-14v14m10-14v14m10-14v14m10-14v14m10-14v14m10-14v14m10-14v14m-55-14v14m10-14v14m10-14v14m10-14v14m10-14v14m10-14v14m10-14v14M738 3l63 115M515 90h-20l20-20v20zm0-20h20v20h-20zm0 0 20 20m0-20-19 19m19-19h20v20h-20zm0 0 20 20m0-20-19 19m19-19h20v20h-20zm0 0 20 20m0-20-19 19m19-19h20v20h-20zm0 0 20 20m0-20-19 19m19-19h20v20h-20zm0 0 20 20m0-20-19 19m19-19h20v20h-20zm0 0 20 20m0-20-19 19m19-19h20v20h-20zm0 0 20 20m0-20-19 19m19-19h20v20h-20zm0 0 20 20m0-20-19 19m19-19h20v20h-20zm0 0 20 20m0-20-19 19m19-19h20v20h-20zm0 0 20 20m0-20-19 19m-181 1-10-10M725 4 615 70m-100 0L725 4M495 90v91m0 8v19"/><circle class="cls-2" cx="495" cy="185" r="4"/><path class="cls-7" d="M698 395h67v9h-67z"/><path class="cls-17" d="M698 400h67v4h-67z"/><path class="cls-7" d="M690 404h83v19h-83z"/><path class="cls-2" d="M740 146h-50a8 8 0 0 1-8-8v-25.39a15 15 0 0 1 1.64-6.82l6.28-12.28A15 15 0 0 1 703.44 85H740a4 4 0 0 1 4 4v53a4 4 0 0 1-4 4Z"/><path d="M689 121h23V92h-8.88a7 7 0 0 0-6.12 3.6l-6.74 12.13a10 10 0 0 0-1.26 4.86Zm23 18h-20a3 3 0 0 1-3-3v-11h23Z" style="fill:#8ad1e2;stroke-width:2px;stroke-linejoin:round;stroke:#000"/><path class="cls-2" d="M717 91h22v55h-22zm-30 55h56v5h-56zm114-36h32v8h-32z"/><path class="cls-9" d="m702.5 99.83 1.2-1.96m-7.36 12.01L700 104"/><rect class="cls-2" x="591" y="250" width="4" height="173" rx="1" ry="1"/><rect class="cls-2" x="616" y="250" width="4" height="173" rx="1" ry="1"/><path class="cls-2" d="M595 263h21v4h-21z"/><path class="cls-17" d="M595 263h3v4h-3zm18 0h3v4h-3z"/><path class="cls-2" d="M595 283h21v4h-21z"/><path class="cls-17" d="M595 283h3v4h-3zm18 0h3v4h-3z"/><path class="cls-2" d="M595 303h21v4h-21z"/><path class="cls-17" d="M595 303h3v4h-3zm18 0h3v4h-3z"/><path class="cls-2" d="M595 323h21v4h-21z"/><path class="cls-17" d="M595 323h3v4h-3zm18 0h3v4h-3z"/><path class="cls-2" d="M595 343h21v4h-21z"/><path class="cls-17" d="M595 343h3v4h-3zm18 0h3v4h-3z"/><path class="cls-2" d="M595 363h21v4h-21z"/><path class="cls-17" d="M595 363h3v4h-3zm18 0h3v4h-3z"/><path class="cls-2" d="M595 383h21v4h-21z"/><path class="cls-17" d="M595 383h3v4h-3zm18 0h3v4h-3z"/><path class="cls-2" d="M595 403h21v4h-21z"/><path class="cls-17" d="M595 403h3v4h-3zm18 0h3v4h-3z"/><path class="cls-8" d="M216.13 77.26A73.87 73.87 0 1 0 290 151.13a73.87 73.87 0 0 0-73.87-73.87Zm0 141.73A67.87 67.87 0 1 1 284 151.13 67.87 67.87 0 0 1 216.13 219Z"/><circle class="cls-6" cx="216.13" cy="151.13" r="67.87"/><path class="cls-5" d="M216.13 90.16v7.89m-30.49.28 3.95 6.83m-26.26 15.48 6.83 3.95m-15 26.54h7.89m.28 30.48 6.83-3.94m15.48 26.26 3.95-6.83m26.54 14.99v-7.88m30.48-.28-3.94-6.83m26.26-15.49-6.83-3.94m14.99-26.54h-7.88m-.28-30.49-6.83 3.95m-15.49-26.26-3.94 6.83m-22.58 48.44 31.66 18.31m-35.62-25.46v-40.52m0 58.47v-8.59"/><circle class="cls-13" cx="216.13" cy="151.13" r="4.68"/><path class="cls-5" d="m206.96 146.01 5.04 2.91"/><path class="cls-6" d="M300 399h48v10h-48zm-22-35h92v14h-92z"/><path class="cls-21" d="M297.64 378h-9.43l6.73-14h9.43l-6.73 14zm18.47 0h-9.43l6.74-14h9.43l-6.74 14zm18.47 0h-9.43l6.74-14h9.43l-6.74 14zm18.48 0h-9.43l6.73-14h9.43l-6.73 14zm15.77-14-6.73 14h7.9v-14h-1.17zM278 364v14h1.17l6.73-14H278zm23.65 45h-7.99l5.71-10h7.99l-5.71 10zm15.66 0h-7.99l5.71-10h7.99l-5.71 10zm15.66 0h-7.99l5.71-10h7.99l-5.71 10zm15.66 0h-7.99l5.71-10h7.99l-5.71 10z"/><path class="cls-11" d="M290 378h10v45h-10zm58 0h10v45h-10z"/><path class="cls-17" d="M290 378h10v5h-10zm58 0h10v5h-10z"/><path class="cls-11" d="M293 359h4v5h-4z"/><circle class="cls-2" cx="295" cy="353" r="6"/><path class="cls-9" d="M295 350a3 3 0 0 1 3 3"/><path class="cls-11" d="M351 359h4v5h-4z"/><circle class="cls-2" cx="353" cy="353" r="6"/><path class="cls-9" d="M353 350a3 3 0 0 1 3 3"/><path class="cls-17" d="M300 399h4v10h-4zm44 0h4v10h-4z"/><path class="cls-9" d="M885.3 374.89v-10.64a6.94 6.94 0 0 1 6.93-6.94h6.94a6.93 6.93 0 0 0 6.94-6.94h0a6.93 6.93 0 0 0-6.94-6.93h-27.53a6.94 6.94 0 0 1-6.94-6.94h0a6.94 6.94 0 0 1 6.94-6.94H903a6.94 6.94 0 0 0 6.94-6.94h0a6.94 6.94 0 0 0-6.94-6.94h-20.4a6.94 6.94 0 0 1-6.94-6.94h0a6.94 6.94 0 0 1 6.94-6.94h5.94a6.93 6.93 0 0 0 6.93-6.93V287"/><path class="cls-8" d="M879.43 419.3h12.65a25.18 25.18 0 0 0 20-24.47v-18.69a1.26 1.26 0 0 0-1.26-1.25h-50.18a1.25 1.25 0 0 0-1.25 1.25v18.69a25.19 25.19 0 0 0 20.04 24.47Z"/><path class="cls-8" d="M923.41 380.06c-3.27-3.11-8.32-2.55-11.28-1.85v4.26c2.24-.68 6.38-1.39 8.44.58 3.12 3 .25 10.19-1.79 12.45a19.4 19.4 0 0 1-7.33 4.83 24.78 24.78 0 0 1-1.72 4.88 24.75 24.75 0 0 0 12.1-6.95c3.25-3.58 6.76-13.26 1.58-18.2Z"/><path class="cls-9" d="M866 397.43a20.1 20.1 0 0 0 2.62 7.6m-2.75-25.51v12.95"/><path class="cls-7" d="M849.21 419.3h73.09v3.7h-73.09z"/><path class="cls-22" d="M263.93 274.26h-3.63a1.45 1.45 0 0 1-1.45-1.46v-3.62a2.18 2.18 0 1 0-4.35 0v3.62a1.45 1.45 0 0 1-1.45 1.46h-3.63a2.18 2.18 0 1 0 0 4.35h3.63a1.45 1.45 0 0 1 1.45 1.45v3.63a2.18 2.18 0 0 0 4.35 0v-3.63a1.45 1.45 0 0 1 1.45-1.45h3.63a2.18 2.18 0 0 0 0-4.35Zm325.72-153.2h-4a1.6 1.6 0 0 1-1.6-1.6v-4a2.41 2.41 0 1 0-4.81 0v4a1.6 1.6 0 0 1-1.6 1.6h-4a2.4 2.4 0 1 0 0 4.8h4a1.6 1.6 0 0 1 1.6 1.6v4a2.41 2.41 0 0 0 4.81 0v-4a1.6 1.6 0 0 1 1.6-1.6h4a2.4 2.4 0 0 0 0-4.8Z"/><path d="M162.44 234.94v4.8m0 12.8v4.81m-11.21-11.21h4.8m12.81 0h4.8m725.8-43.2v4.8m0 12.8v4.81m-11.21-11.21h4.8m12.81 0h4.8m-100.71 49.08-3.38 3.75m-10.4-5.2 2.53 4.38m-8.16 8.28 4.94-1.05m5.35 10.31.53-5.02m11.46-1.9-4.61-2.05M475.8 49.48v5.05m-11.21 3.1 4.8 1.56m-.52 11.61 2.97-4.09m10.88 4.09-2.97-4.09m7.25-9.08-4.8 1.56m324.19 116.14A11.61 11.61 0 1 1 818 163.72m-476.21-72.6a8 8 0 1 1 8-8" style="stroke-width:3px;stroke-miterlimit:10;stroke:#fff;fill:none;stroke-linecap:round"/><path class="cls-22" d="M958.55 297.33a7.68 7.68 0 0 1-5.74-5.73 2.21 2.21 0 0 0-4.31 0 7.68 7.68 0 0 1-5.73 5.73 2.21 2.21 0 0 0 0 4.31 7.68 7.68 0 0 1 5.73 5.74 2.21 2.21 0 0 0 4.31 0 7.67 7.67 0 0 1 5.74-5.74 2.21 2.21 0 0 0 0-4.31Zm-820.83 66.28a7.67 7.67 0 0 1 .08-8.11 2.21 2.21 0 0 0-3-3.07 7.67 7.67 0 0 1-8.11-.07 2.21 2.21 0 0 0-3.07 3 7.7 7.7 0 0 1-.07 8.11 2.21 2.21 0 0 0 3 3.07 7.67 7.67 0 0 1 8.11.08 2.21 2.21 0 0 0 3.06-3.01Z"/><path class="cls-21" d="M183 417h-25l6-44h13l6 44z"/><path style="stroke-linecap:round;fill:#4d4d4d;stroke-width:2px;stroke-linejoin:round;stroke:#000" d="M150 417h41v6h-41z"/><path class="cls-15" d="M159.91 403h21.18l-2.18-16h-16.82l-2.18 16z"/></g></g></svg>